Coordinates
version=1
nRows=14
nColumns=24
inDegrees=yes

Units are S.I. units (second, meters, Newtons, ...)
Angles are in degrees.

endheader
time	pelvis_tilt	pelvis_list	pelvis_rotation	pelvis_tx	pelvis_ty	pelvis_tz	hip_flexion_r	hip_adduction_r	hip_rotation_r	knee_angle_r	ankle_angle_r	subtalar_angle_r	mtp_angle_r	hip_flexion_l	hip_adduction_l	hip_rotation_l	knee_angle_l	ankle_angle_l	subtalar_angle_l	mtp_angle_l	lumbar_extension	lumbar_bending	lumbar_rotation
      1.32316667	     -0.52746915	      0.18647087	     -5.00699566	      0.91160127	      0.96931397	      0.32892512	    -19.84961827	      0.34246064	     -0.55225019	     -6.41428131	     18.61389238	      1.36007060	      2.80887592	     25.13110549	     -1.96311188	     -1.53692253	      7.32830077	      1.60181754	     -4.30152611	      0.88719165	    -13.54382036	      4.90648488	      8.86169530
      1.32733333	     -0.52530946	      0.30242005	     -5.04891979	      0.91752562	      0.96857004	      0.32848807	    -20.04757422	      0.12733976	     -0.73825116	     -6.72934503	     18.59770403	      1.69886251	      3.02917629	     25.20876958	     -1.81583230	     -1.25791083	      6.83226824	      1.61993799	     -4.47934696	      0.90994525	    -13.51497556	      4.71509168	      8.97009306
      1.33150000	     -0.53410919	      0.42413731	     -5.10373230	      0.92348011	      0.96786135	      0.32810158	    -20.25767649	     -0.08424573	     -0.76760525	     -6.98695881	     18.44497413	      1.69374667	      3.07304070	     25.30596340	     -1.66676315	     -1.04578338	      6.26783960	      1.66053080	     -4.60249836	      0.91899306	    -13.46663007	      4.53576702	      8.97932994
      1.33566667	     -0.55688663	      0.54745036	     -5.13520941	      0.92949171	      0.96712272	      0.32763299	    -20.42830033	     -0.29925593	     -0.92136335	     -7.30503617	     18.35216019	      1.93106704	      3.36934285	     25.40409467	     -1.50123974	     -0.71241087	      5.70747295	      1.57595418	     -4.92018196	      0.96151714	    -13.39091534	      4.33654951	      9.07595223
      1.33983333	     -0.56362613	      0.69292102	     -5.19023751	      0.93554704	      0.96646047	      0.32721280	    -20.62719796	     -0.53730049	     -0.95987523	     -7.58964186	     18.15228625	      1.90088710	      3.43002260	     25.49398973	     -1.31753641	     -0.52221239	      5.08131718	      1.53792847	     -5.07569510	      0.97301198	    -13.33546133	      4.12700203	      9.07765552
      1.34400000	     -0.58124088	      0.84361442	     -5.22796853	      0.94165252	      0.96579535	      0.32674861	    -20.81139889	     -0.77566888	     -1.03215869	     -7.88230862	     17.93205546	      1.90498829	      3.50165759	     25.59448512	     -1.11688687	     -0.31622414	      4.44263185	      1.41230856	     -5.27275701	      0.98542591	    -13.26323824	      3.91737563	      9.10516242
      1.34816667	     -0.61501487	      0.99109379	     -5.25520658	      0.94780524	      0.96511327	      0.32624006	    -20.96411841	     -1.01114953	     -1.14374938	     -8.20144060	     17.64428586	      1.93072065	      8.55787353	     25.65828418	     -0.91069119	      0.12623940	      3.89935076	      1.00084091	     -5.92056749	      1.98545532	    -13.16915886	      3.69853792	      9.14052400
      1.35233333	     -0.63192683	      1.17240026	     -5.30371669	      0.95402311	      0.96450407	      0.32577203	    -21.12940358	     -1.28550267	     -1.22451205	     -8.53296151	     17.38320497	      1.93552718	      8.57361968	     25.74756359	     -0.67457747	      0.26564945	      3.23541567	      0.76173637	     -6.10671326	      1.98328774	    -13.06736538	      3.42418510	      9.17463153
      1.35650000	     -0.68582730	      1.36577231	     -5.34486795	      0.96026085	      0.96385580	      0.32522797	    -21.22863262	     -1.57561478	     -1.35696801	     -8.91771265	     17.17689323	      2.06706048	      8.68524204	     25.83944338	     -0.41590355	      0.58791278	      2.64583837	      0.25817189	     -6.73339232	      1.99632147	    -12.94908703	      3.16651520	      9.28076951
      1.36066667	     -0.70825316	      1.56190085	     -5.38623542	      0.96654776	      0.96328296	      0.32467963	    -21.36140542	     -1.86740544	     -1.46675384	     -9.30218106	     16.87933538	      2.07575850	      8.87132967	     25.90139899	     -0.14712226	      0.84644605	      2.03735233	     -0.25053470	     -7.27812800	      2.03202122	    -12.85205501	      2.90965467	      9.30410803
      1.36483333	     -0.75992880	      1.77154466	     -5.42277595	      0.97287473	      0.96270181	      0.32413663	    -21.45758108	     -2.16611892	     -1.57001785	     -9.69274688	     16.56027373	      2.06341735	      9.10315978	     26.00265345	      0.13602143	      1.06345407	      1.40789223	     -0.83922465	     -7.80680998	      2.08122960	    -12.71049277	      2.62919337	      9.33861484
      1.36900000	     -0.80801750	      1.99267389	     -5.45932448	      0.97923905	      0.96215759	      0.32355973	    -21.54078614	     -2.47930642	     -1.68637037	    -10.11401450	     16.20261760	      2.03627601	      9.41197106	     26.09433186	      0.43715428	      1.27593024	      0.78810086	     -1.49199249	     -8.38093759	      2.15755051	    -12.57252728	      2.33885556	      9.36985398
      1.37316667	     -0.84629228	      2.23412856	     -5.47933719	      0.98565025	      0.96165015	      0.32296079	    -21.63284665	     -2.80830108	     -1.83771060	    -10.52775546	     15.72132890	      1.91551706	     13.91459818	     26.18289670	      0.76814639	      1.45676025	      0.15547977	     -2.18527102	     -8.93080617	      3.31431698	    -12.44396505	      2.02857594	      9.34513175
      1.37733333	     -0.92585969	      2.47928501	     -5.52289747	      0.99207842	      0.96113729	      0.32238287	    -21.65482304	     -3.14349380	     -1.93296437	    -10.99377062	     15.30656971	      1.84358398	     13.98525239	     26.31508589	      1.09136411	      1.59676067	     -0.48202379	     -2.94884583	     -9.51901377	      3.30352142	    -12.26402815	      1.71057689	      9.41563800
